<svg xmlns="http://www.w3.org/2000/svg" xmlns:xlink="http://www.w3.org/1999/xlink" version="1.1" x="0px" y="0px" viewBox="0 0 100 125" style="enable-background:new 0 0 100 100;" xml:space="preserve"><path d="M57.833,29.296c-3.336,3.336-3.336,8.765,0,12.101c1.616,1.616,3.765,2.506,6.05,2.506c2.285,0,4.434-0.89,6.05-2.506  c3.336-3.336,3.336-8.765,0-12.101C66.597,25.959,61.169,25.961,57.833,29.296z M68.519,39.983c-1.238,1.238-2.885,1.92-4.636,1.92  c-1.751,0-3.398-0.682-4.636-1.92c-2.556-2.557-2.556-6.716,0-9.272c1.278-1.278,2.957-1.917,4.636-1.917  c1.679,0,3.358,0.64,4.636,1.917C71.075,33.267,71.075,37.426,68.519,39.983z"/><path d="M16.081,46.206l10.486,4.692c0.13,0.058,0.27,0.087,0.408,0.087c0.188,0,0.376-0.054,0.54-0.158  c0.284-0.181,0.457-0.493,0.461-0.83c0.001-0.125,0.267-12.546,9.458-18.187c0.419-0.258,0.589-0.782,0.4-1.236  c-0.188-0.455-0.679-0.705-1.159-0.588l-9.954,2.414c-0.2,0.048-0.38,0.157-0.516,0.312L15.739,44.633  c-0.209,0.239-0.293,0.563-0.226,0.873S15.792,46.076,16.081,46.206z M27.5,34.27l5.256-1.275  c-5.16,5.239-6.394,12.407-6.688,15.489l-7.932-3.55L27.5,34.27z"/><path d="M89.832,9.398c-0.391-0.391-1.023-0.391-1.414,0L84.616,13.2c-0.052-0.018-0.1-0.043-0.155-0.052  c-17.471-3.051-33.664,7.595-42.99,18.572c-2.142,2.521-4.042,5.146-5.652,7.803c-0.15,0.251-3.693,6.182-4.495,9.899  c-0.054,0.253-0.009,0.516,0.126,0.735c0.058,0.094,0.596,0.962,1.407,2.178c-0.632,1.06-1.899,3.258-2.138,4.259  c-0.097,0.404-0.393,1.636,4.367,6.741l0.833,0.832c4.169,3.886,5.746,4.384,6.401,4.384c0.143,0,0.243-0.024,0.315-0.041  c1.001-0.241,3.198-1.507,4.258-2.139c1.216,0.811,2.085,1.349,2.179,1.407c0.159,0.098,0.341,0.148,0.525,0.148  c0.07,0,0.141-0.008,0.211-0.022c3.717-0.802,9.648-4.345,9.902-4.497c2.654-1.607,5.278-3.508,7.799-5.65  c10.978-9.324,21.622-25.515,18.572-42.989c-0.009-0.054-0.034-0.103-0.052-0.154l3.803-3.803  C90.223,10.421,90.223,9.788,89.832,9.398z M42.269,66.537c-0.753-0.214-3.145-2.117-4.96-3.808l-0.783-0.782  c-1.714-1.84-3.619-4.232-3.833-4.985c0.17-0.535,0.791-1.707,1.417-2.801c1.339,1.903,2.996,4.088,4.53,5.621l0.807,0.808  c0,0,0,0,0,0c1.534,1.534,3.718,3.191,5.621,4.531C43.974,65.746,42.803,66.368,42.269,66.537z M66.215,56.235  c-2.44,2.073-4.977,3.911-7.537,5.461c-0.056,0.034-5.473,3.269-8.904,4.162c-1.348-0.853-6.268-4.037-8.913-6.682l-0.807-0.808  c-2.642-2.642-5.828-7.563-6.682-8.912c0.893-3.432,4.128-8.848,4.16-8.901c1.552-2.563,3.39-5.1,5.463-7.54  c8.504-10.01,24.262-20.672,40.812-17.949l0.356,0.356C86.886,31.97,76.226,47.731,66.215,56.235z"/><path d="M68.657,61.397c-0.454-0.191-0.979-0.019-1.236,0.399c-5.641,9.19-18.063,9.456-18.188,9.458  c-0.336,0.005-0.649,0.178-0.83,0.462c-0.181,0.283-0.208,0.64-0.07,0.946l4.692,10.486c0.129,0.29,0.389,0.501,0.7,0.568  c0.07,0.016,0.142,0.023,0.213,0.023c0.24,0,0.476-0.087,0.66-0.249l11.921-10.468c0.155-0.136,0.264-0.315,0.312-0.516l2.414-9.953  C69.36,62.077,69.111,61.585,68.657,61.397z M64.961,71.73l-10.665,9.364l-3.55-7.933c3.082-0.295,10.25-1.529,15.49-6.688  L64.961,71.73z"/><path d="M31.839,69.244c-0.026,1.915-0.473,3.946-1.479,5.588c-1.539,2.514-4.541,3.925-7.303,4.616  c-1.237,0.309-2.564,0.597-3.841,0.398c-0.021-0.003-0.104-0.032-0.123-0.022c0.961-0.503,1.724-2.334,2.548-3.524  c0.824-1.19,2.182-2.182,2.182-2.182c-1.51-0.564-3.013,1.304-3.013,1.304c-0.137-1.19,0.641-3.249,0.641-3.249  c1.327-3.021,2.883-3.707,4.302-4.531c1.419-0.824,3.478-1.19,3.478-1.19c-0.914-0.504-2.104-0.364-3.102-0.296  c-1.101,0.075-2.195,0.223-3.282,0.41c-3.138,0.541-5.767,2.806-6.929,5.716c-0.571,1.429-0.789,2.978-1.432,4.373  c-0.654,1.418-1.556,2.607-2.429,3.893c-0.422,0.62-0.817,1.266-1.089,1.967c-0.255,0.657-0.104,1.46-0.455,2.06  c0.32-0.549,1.556-1.19,2.747-1.466c1.191-0.276,2.089,0.444,2.089,0.444s-2.022,0.816-3.556,2.76  c-1.534,1.944-1.918,4.581-1.918,4.581c1.186-2.022,3.712-2.635,5.814-3.219c2.349-0.652,4.731-1.178,7.086-1.813  c2.352-0.634,4.597-1.837,6.296-3.599c2.426-2.517,3.825-5.878,3.812-9.186c0,0-0.082-2.37-1.043-4.018  C31.84,69.122,31.84,69.183,31.839,69.244z"/><text x="0" y="115" fill="#000000" font-size="5px" font-weight="bold" font-family="'Helvetica Neue', Helvetica, Arial-Unicode, Arial, Sans-serif">Created by Alina Oleynik</text><text x="0" y="120" fill="#000000" font-size="5px" font-weight="bold" font-family="'Helvetica Neue', Helvetica, Arial-Unicode, Arial, Sans-serif">from the Noun Project</text></svg>